<svg width="92" height="46" viewBox="0 0 92 46" fill="none" xmlns="http://www.w3.org/2000/svg">
<g clip-path="url(#clip0_1_65)">
<path d="M17.8221 22.9919C23.8509 15.3326 40.4971 -0.00897217 63.1937 -0.00897217C79.1209 -0.00897217 91.19 9.07471 91.19 9.07471C82.2214 4.71062 46.7515 -2.38586 18.8214 23.4409L17.8221 22.9919Z" fill="#F6BE00"/>
<path d="M89.3293 25.7026C89.929 25.7016 90.5279 25.7477 91.1205 25.8405V20.9022C89.9631 20.7499 88.7966 20.6772 87.6292 20.6845C78.9591 20.6845 72.4142 25.8747 72.4142 32.8231C72.4156 33.2875 72.4464 33.7515 72.5064 34.212C71.2314 32.0756 68.4044 30.9851 64.3993 30.1579C59.2889 29.1244 58.5767 28.6652 58.6804 27.5372C58.7727 26.4695 60.4944 25.4862 63.0559 25.4862C65.054 25.5138 67.0246 25.9557 68.8431 26.784V21.6166C66.847 20.9899 64.7686 20.6646 62.6764 20.6515C56.2226 20.6515 51.8938 23.7405 51.5486 27.9895V28.0704C49.9864 23.8909 46.347 20.7438 40.0766 20.7438C32.5323 20.7438 27.3763 26.2564 27.3763 32.9507C27.3763 33.1227 27.3763 33.2834 27.3877 33.4554C25.9634 30.3789 22.2659 28.9535 17.2706 27.8722C11.3682 26.6085 10.5296 26.0228 10.5296 24.6817C10.5296 23.3953 12.0337 22.2889 14.3878 22.339C15.5576 22.3463 16.7162 22.568 17.8061 22.993C19.2727 21.1793 20.8368 19.4467 22.4915 17.8029C19.9011 16.8789 17.1688 16.4162 14.4185 16.4355C7.40182 16.4355 2.49878 19.9496 2.49878 25.2207C2.49878 29.2748 4.61132 31.1116 8.32136 32.3753C8.5162 32.4322 9.10188 32.6168 9.43574 32.7308C10.7108 33.0988 12.1453 33.4315 13.7189 33.7642C19.5062 35.004 19.9859 36.05 19.9859 37.1974C19.9859 38.5522 18.3781 39.3566 15.6799 39.3566C12.4891 39.3233 9.38141 38.3355 6.7569 36.5206C5.23004 38.5875 3.64506 40.8619 2.80643 42.2622C6.70644 44.4062 11.0802 45.5421 15.5306 45.5667C23.018 45.5667 27.7489 42.3397 28.0019 37.0573C29.5869 41.8691 34.0193 44.9924 40.014 44.9924C41.8825 45.0017 43.744 44.7623 45.5494 44.2802V39.1527C43.9104 39.7297 42.1741 39.9794 40.439 39.8876C39.0313 39.8965 37.6619 39.4296 36.5529 38.5626C35.4439 37.6956 34.6603 36.4793 34.3293 35.1111H52.3644C52.41 34.514 52.4567 34.1232 52.4567 33.4805V33.3882C52.4569 32.759 52.4222 32.1302 52.353 31.5047C53.7204 33.3996 56.7285 34.1574 60.851 34.996C65.8646 36.0215 66.1449 36.7758 66.1449 37.9586C66.1449 38.992 64.8129 40.1862 61.8389 40.095C58.5617 39.9624 55.3575 39.0869 52.4681 37.5347V43.4598C55.4167 44.7585 58.5907 45.4684 61.8116 45.5496C68.5981 45.5496 73.2608 41.5763 73.2608 37.2817C73.2625 37.1859 73.2587 37.09 73.2494 36.9946C74.5176 39.7597 76.7332 41.9798 79.4958 43.2536C81.9663 44.4029 84.6606 44.9912 87.3854 44.9764C88.6365 44.9884 89.8865 44.8938 91.1216 44.6938V39.6871C90.529 39.7795 89.9301 39.8256 89.3304 39.825C84.3168 39.825 80.2353 36.6675 80.2353 32.7604C80.2353 28.8532 84.3157 25.7026 89.3293 25.7026ZM34.3475 31.0205C34.5369 29.6268 35.2378 28.3534 36.3139 27.4478C37.3901 26.5423 38.7645 26.0693 40.1701 26.1208C41.5654 26.0468 42.9353 26.5155 43.9928 27.4288C45.0503 28.3421 45.7135 29.6292 45.8434 31.0205H34.3475Z" fill="#004C8D"/>
<path d="M9.68531 32.8071C7.21226 35.8203 4.92132 38.9783 2.82469 42.2645C1.84038 41.7067 0.896489 41.0803 0 40.3901C2.54813 37.5087 5.30796 34.8216 8.25644 32.3513C8.25644 32.3627 9.50869 32.7422 9.68531 32.8071Z" fill="#F6BE00"/>
</g>
<defs>
<clipPath id="clip0_1_65">
<rect width="91.19" height="45.5779" fill="white" transform="translate(0 -0.00897217)"/>
</clipPath>
</defs>
</svg>
