<svg width="16" height="16" viewBox="0 0 16 16" fill="none" xmlns="http://www.w3.org/2000/svg">
<path d="M7.75 3C9.40625 3 10.75 4.34375 10.75 6C10.75 7.65625 9.40625 9 7.75 9C6.09375 9 4.75 7.65625 4.75 6C4.75 4.34375 6.09375 3 7.75 3ZM7.75 7.5C8.5625 7.5 9.25 6.84375 9.25 6C9.25 5.1875 8.5625 4.5 7.75 4.5C6.90625 4.5 6.25 5.1875 6.25 6C6.25 6.84375 6.90625 7.5 7.75 7.5ZM7.75 0C12.0312 0 15.5 3.46875 15.5 7.75C15.5 12.0312 12.0312 15.5 7.75 15.5C3.46875 15.5 0 12.0312 0 7.75C0 3.46875 3.46875 0 7.75 0ZM7.75 14C9.28125 14 10.7188 13.4375 11.8125 12.5C11.3438 11.7812 10.5312 11.3125 9.625 11.2812C8.96875 11.4688 8.34375 11.5625 7.75 11.5625C7.125 11.5625 6.5 11.4688 5.84375 11.2812C4.9375 11.2812 4.125 11.7812 3.65625 12.5C4.75 13.4375 6.1875 14 7.75 14ZM12.8125 11.375C13.5625 10.375 14 9.125 14 7.75C14 4.3125 11.1875 1.5 7.75 1.5C4.28125 1.5 1.5 4.3125 1.5 7.75C1.5 9.125 1.90625 10.375 2.65625 11.375C3.40625 10.4062 4.59375 9.75 5.9375 9.75C6.25 9.75 6.75 10.0625 7.75 10.0625C8.71875 10.0625 9.21875 9.75 9.53125 9.75C10.875 9.75 12.0625 10.4062 12.8125 11.375Z" fill="#10100E" fill-opacity="0.65"/>
</svg>
