<svg width="15" height="15" viewBox="0 0 15 15" fill="none" xmlns="http://www.w3.org/2000/svg">
<path d="M14.2031 12.4594C14.4562 12.7406 14.4562 13.1625 14.175 13.4156L13.3875 14.2031C13.1344 14.4844 12.7125 14.4844 12.4312 14.2031L9.64687 11.4187C9.50625 11.2781 9.45 11.1094 9.45 10.9406V10.4625C8.4375 11.25 7.2 11.7 5.85 11.7C2.61562 11.7 0 9.08435 0 5.84998C0 2.64373 2.61562 -2.40803e-05 5.85 -2.40803e-05C9.05625 -2.40803e-05 11.7 2.64373 11.7 5.84998C11.7 7.2281 11.2219 8.4656 10.4625 9.44998H10.9125C11.0812 9.44998 11.25 9.53435 11.3906 9.64685L14.2031 12.4594ZM5.85 9.44998C7.81875 9.44998 9.45 7.84685 9.45 5.84998C9.45 3.88123 7.81875 2.24998 5.85 2.24998C3.85312 2.24998 2.25 3.88123 2.25 5.84998C2.25 7.84685 3.85312 9.44998 5.85 9.44998Z" fill="#212529"/>
</svg>
